<svg width="357" height="67" viewBox="0 0 357 67" fill="none" xmlns="http://www.w3.org/2000/svg">
<g clip-path="url(#clip0_12_379)">
<path d="M80.3901 31.59C83.9201 33.97 86.7301 37.78 86.7301 43.62C86.7301 53.56 79.8901 57.81 71.7501 57.81H7.81006V9.26999H64.0501C75.4301 9.26999 85.0801 10.42 85.0801 22.23C85.0801 26.55 83.2801 29.5 80.4001 31.59H80.3901ZM27.4701 27.92H62.2501C63.6201 27.85 64.4101 26.34 64.4101 24.9C64.4101 23.46 63.6201 21.88 62.1101 21.88H27.4701V27.93V27.92ZM65.9901 42.1C65.9901 40.66 65.1301 39.08 63.7601 39.08H27.4701V45.13H63.6201C65.2801 45.13 66.0001 43.55 66.0001 42.11L65.9901 42.1Z" fill="white"/>
<path d="M211.67 25.76C211.67 39.73 204.76 44.34 191.94 44.34H169.47V57.66H149.81V9.2H193.16C206.91 9.2 211.67 17.62 211.67 25.76ZM192.16 27.13C192.16 25.26 191.08 23.67 189.06 23.67H169.47V30.51H189.27C190.57 30.44 192.15 29.57 192.15 27.13H192.16Z" fill="white"/>
<path d="M278.92 25.76C278.92 39.73 272.01 44.34 259.19 44.34H236.72V57.66H217.06V9.2H260.41C274.16 9.2 278.92 17.62 278.92 25.76ZM259.4 27.13C259.4 25.26 258.32 23.67 256.3 23.67H236.71V30.51H256.51C257.81 30.44 259.39 29.57 259.39 27.13H259.4Z" fill="white"/>
<path d="M324.71 57.66H284.31V9.2H324.71C339.04 9.2 348.18 19.78 348.18 33.47C348.18 47.16 338.39 57.66 324.71 57.66ZM316.07 42.68C323.49 42.68 328.24 40.16 328.24 33.46C328.24 26.76 323.56 24.24 316.14 24.17H303.97V42.68H316.07Z" fill="white"/>
<path d="M142.79 22.84C142.52 22.2 142.05 21.93 141.46 22.05C140.95 22.15 140.61 22.58 140.56 23.22C140.54 23.41 140.56 23.61 140.55 23.8C140.5 28.44 140.43 33.09 140.4 37.73C140.4 38.46 140.17 39 139.63 39.5C138.45 40.6 137.31 41.74 136.16 42.87C135.41 43.61 135.4 44.16 136.13 44.92C136.23 45.02 136.33 45.12 136.43 45.23C137.03 45.88 137.03 46.46 136.43 47.1C136.37 47.16 136.3 47.22 136.24 47.29C134.15 49.33 132.06 51.38 129.97 53.42C129.14 54.23 128.59 54.22 127.76 53.38C126.85 52.45 126.37 52.45 125.44 53.35C125.29 53.5 125.13 53.65 124.96 53.76C124.48 54.07 123.87 54 123.51 53.6C123.14 53.2 123.12 52.6 123.48 52.14C123.67 51.91 123.9 51.71 124.1 51.49C124.69 50.87 124.74 50.24 124.12 49.68C122.88 48.55 123.11 47.93 124.23 46.86C126.24 44.96 128.19 43 130.17 41.07C131.01 40.25 131.56 40.26 132.38 41.1C133.31 42.05 133.77 42.05 134.73 41.1C135.67 40.18 136.6 39.26 137.55 38.35C137.95 37.97 138.13 37.54 138.13 36.99C138.23 27.31 138.35 17.64 138.46 7.95999C138.46 7.49999 138.42 7.06999 138.04 6.75999C137.7 6.47999 137.3 6.40999 136.89 6.58999C136.42 6.79999 136.21 7.17999 136.2 7.68999C136.18 9.36999 136.16 11.06 136.14 12.74C136.14 12.93 136.14 13.12 136.14 13.44C135.91 13.24 135.76 13.13 135.63 13.01C131.45 9.40999 126.65 7.18999 121.17 6.49999C107.57 4.78999 94.75 13.46 91.42 26.63C91.05 28.08 90.9 29.59 90.64 31.07C90.61 31.24 90.57 31.41 90.54 31.58L90.5 34.77C90.63 35.8 90.71 36.84 90.89 37.86C92.32 46.03 96.59 52.31 103.59 56.71C107.2 58.98 111.17 60.24 115.43 60.59C115.57 60.6 115.7 60.65 115.84 60.68L119.03 60.72C120.06 60.59 121.1 60.5 122.13 60.33C128.4 59.29 133.68 56.39 137.95 51.69C141.85 47.39 144.13 42.32 144.8 36.56C145.35 31.82 144.66 27.24 142.79 22.84ZM117.69 44.82C111.56 44.75 106.4 39.87 106.41 33.43C106.41 27.27 111.37 22.15 117.83 22.13C123.99 22.11 129.09 27.23 129.08 33.55C129.06 39.71 124.11 44.79 117.69 44.82Z" fill="white"/>
<path d="M6.98 2.36H324.47C341.6 2.36 355.5 16.26 355.5 33.39V33.6C355.5 50.73 341.6 64.63 324.47 64.63H6.98C3.96 64.63 1.5 62.17 1.5 59.15V7.84C1.5 4.82 3.96 2.36 6.98 2.36Z" stroke="white" stroke-width="3" stroke-miterlimit="10"/>
</g>
<defs>
<clipPath id="clip0_12_379">
<rect width="357" height="65.28" fill="white" transform="translate(0 0.860001)"/>
</clipPath>
</defs>
</svg>
